# xmcd
#
# Track frame offsets: 
#        150
#        11370
#        23311
#        35366
#        49643
#        59363
#        72733
#        85114
#        104933
#        114575
#        125925
#        139119
#
# Disc length: 2417 seconds
#
# Revision: 0
# Processed by: cddbd v1.5.2PL0 Copyright (c) Steve Scherf et al.
# Submitted via: ExactAudioCopyFreeDBPlugin 1.0
#
DISCID=a6096f0c
DTITLE=Patrick Normand - Plaisirs de Noël
DYEAR=2008
DGENRE=Country
TTITLE0=Au Royaume du bonhomme hiver
TTITLE1=Sonne ta cloche
TTITLE2=Bonjour Noël
TTITLE3=Petit papa Noël
TTITLE4=C'est l'hiver
TTITLE5=Le petit renne au nez rouge
TTITLE6=L'enfant au tambour
TTITLE7=Les anges dans nos campagnes
TTITLE8=Dans cette étable
TTITLE9=Il est né le divin enfant
TTITLE10=Lettre au père Noël
TTITLE11=Plaisirs de Noël
EXTD=
EXTT0=
EXTT1=
EXTT2=
EXTT3=
EXTT4=
EXTT5=
EXTT6=
EXTT7=
EXTT8=
EXTT9=
EXTT10=
EXTT11=
PLAYORDER=
